<?xml version="1.0" encoding="UTF-8"?>
<svg width="128px" height="128px" viewBox="0 0 128 128" xmlns="http://www.w3.org/2000/svg" xmlns:xlink="http://www.w3.org/1999/xlink" version="1.1">
 <!-- Generated by Pixelmator Pro 2.2 -->
 <path id="Unicorn" d="M66.828 128 C59.801 128.005 42.949 126.38 27.064 112.427 4.819 92.887 0.009 70.88 0.009 70.88 0.009 70.88 7.138 67.944 14.154 58.702 13.343 58.998 12.509 59.204 11.68 59.267 5.879 59.703 -0.273 57.39 0.009 55.462 0.139 54.574 4.513 56.541 10 54.862 14.85 53.378 18.399 49.756 18.399 49.756 18.399 49.756 14.935 51.733 11.591 51.558 7.11 51.323 4.105 49.593 4.165 48.254 4.226 46.881 10.322 50.575 16.012 46.452 19.025 44.269 21.341 42.203 23.093 40.417 24.045 38.82 25.097 37.243 26.268 35.74 39.488 18.77 52.461 15.517 60.439 15.517 66.592 15.517 72.437 17.061 77.709 19.835 77.892 19.671 78.074 19.5 78.255 19.322 83.158 14.487 80.9 8.455 83.206 8.709 84.268 8.827 85.673 12.313 85.681 15.517 85.688 18.358 84.355 20.923 84.355 20.923 84.355 20.923 85.121 20.815 87.892 17.92 90.662 15.025 89.48 11.396 90.809 11.613 92.123 11.827 92.644 14.464 92.047 17.92 91.756 19.607 90.784 21.469 89.932 22.849 L125.037 0.545 C126.078 -0.228 127.317 -0.172 127.804 0.669 128.29 1.51 127.841 2.818 126.799 3.591 L90.72 34.376 90.986 34.839 C90.986 34.839 98.882 69.418 99.208 73.082 99.385 75.061 99.893 86.575 86.035 84.195 81.382 83.396 78.962 72.281 78.962 72.281 78.962 72.281 75.761 70.288 74.453 68.878 73.125 67.446 71.182 63.872 71.182 63.872 71.182 63.872 68.294 62.751 66.938 61.97 65.729 61.273 63.865 59.886 62.698 58.993 63.987 60.99 68.323 68.633 68.441 81.191 68.581 96.16 63.048 105.419 63.048 105.419 63.048 105.419 65.713 110.465 67.38 116.031 69.115 121.823 70.209 127.844 70.209 127.844 70.209 127.844 68.979 127.998 66.828 128 Z" fill="#d8dee9" fill-opacity="1" stroke="none"/>
 <path id="stroke-path" d="M65.34 110.709 L64.004 107.662 64.006 107.662 62.906 105.418 63.525 104.246 64.322 102.51 65.043 100.703 65.549 99.273 66.555 95.883 67.287 92.637 67.832 89.271 68.193 85.568 68.316 82.24 68.23 78.625 68.008 75.938 67.592 72.967 67.098 70.475 66.465 68.014 65.771 65.83 64.816 63.352 63.686 60.955 62.539 58.969 62.689 58.834 65.156 60.656 65.156 60.654 67.006 61.865 68.57 62.643 71.266 63.773 73.072 66.805 73.893 67.996 74.549 68.801 75.262 69.475 76.338 70.334 77.625 71.256 79.07 72.205 79.588 74.195 80.174 76.049 80.758 77.619 81.463 79.227 82.219 80.652 82.217 80.652 82.979 81.807 83.838 82.809 84.561 83.422 85.348 83.865 85.734 84 86.381 84.127 86.381 84.129 87.604 84.291 87.604 84.289 88.76 84.375 89.824 84.391 90.824 84.34 92.172 84.148 92.986 83.949 93.746 83.693 94.428 83.398 95.043 83.063 96.143 82.256 96.809 81.588 97.547 80.6 98.107 79.559 98.529 78.463 98.875 77.119 99.072 75.738 99.137 74.424 99.074 73.002 98.727 70.887 97.949 66.967 95.229 54.322 90.867 34.887 90.559 34.35 126.994 3.266 127.291 2.947 127.535 2.592 127.725 2.201 127.832 1.842 127.875 1.414 127.832 1.086 127.711 0.766 127.531 0.516 127.143 0.246 126.572 0.129 125.977 0.211 125.389 0.463 89.916 23.008 89.773 22.873 90.549 21.531 91.154 20.297 91.648 19.002 91.896 18.049 92.107 16.512 92.16 14.854 92.039 13.67 91.906 13.1 91.721 12.605 91.414 12.115 91.045 11.82 90.666 11.732 90.574 11.756 90.457 11.842 90.32 12.086 90.242 12.342 89.895 14.236 89.602 15.309 89.258 16.158 88.771 17.021 88.049 17.938 86.43 19.543 85.264 20.531 84.734 20.887 84.328 21.072 84.205 20.955 84.836 19.438 85.307 17.766 85.533 16.174 85.555 15.373 85.506 14.467 85.396 13.586 85.162 12.436 84.934 11.619 84.586 10.66 84.191 9.846 83.887 9.379 83.488 8.971 83.182 8.836 82.891 8.848 82.703 8.924 82.488 9.135 82.32 9.463 82.115 10.256 81.795 12.326 81.543 13.584 81.154 14.938 80.625 16.227 80.109 17.18 79.467 18.131 78.68 19.066 77.73 19.986 75.908 19.086 73.861 18.207 71.777 17.455 70.176 16.971 68.018 16.441 66.363 16.129 66.363 16.127 64.139 15.83 64.139 15.832 62.436 15.697 60.439 15.643 58.695 15.695 56.582 15.893 54.795 16.172 54.795 16.174 52.898 16.584 50.92 17.137 50.92 17.135 48.873 17.844 47.281 18.49 45.646 19.242 43.982 20.104 42.287 21.08 40.561 22.184 38.814 23.41 37.635 24.307 35.842 25.773 35.84 25.771 34.641 26.826 32.818 28.541 30.986 30.41 29.143 32.445 27.91 33.895 26.365 35.818 25.307 37.24 24.117 38.998 23.189 40.496 21.564 42.08 19.885 43.572 17.967 45.137 15.947 46.652 14.867 47.32 13.785 47.83 12.447 48.262 11.146 48.506 10.021 48.594 9.07 48.59 7.754 48.486 4.889 48.063 4.523 48.07 4.322 48.166 4.291 48.242 4.299 48.422 4.424 48.775 4.824 49.281 5.287 49.66 5.877 50.027 6.609 50.381 7.439 50.693 8.396 50.969 9.809 51.252 10.984 51.391 12.057 51.445 13.291 51.355 14.482 51.131 15.961 50.695 17.271 50.174 18.441 49.598 18.563 49.779 16.873 51.26 15.021 52.594 13.225 53.65 12.014 54.24 11.154 54.596 9.266 55.197 7.775 55.496 5.926 55.676 3.877 55.654 0.588 55.348 0.268 55.379 0.148 55.469 0.143 55.756 0.33 56.18 0.707 56.609 1.355 57.1 1.939 57.436 2.996 57.912 2.996 57.91 4.248 58.34 5.15 58.584 6.623 58.889 6.623 58.891 7.639 59.037 9.24 59.172 10.313 59.197 11.664 59.143 12.441 59.045 13.348 58.834 14.201 58.555 14.309 58.709 12.769 60.641 11.137 62.498 9.383 64.297 7.547 65.979 5.832 67.387 3.795 68.863 1.764 70.127 0.154 70.945 0.615 72.664 1.379 75.033 2.018 76.803 2.943 79.131 2.945 79.131 4.098 81.756 5.121 83.9 6.287 86.17 7.609 88.559 9.09 91.051 10.172 92.758 11.938 95.383 13.217 97.166 15.291 99.885 16.781 101.715 18.361 103.559 20.033 105.412 20.031 105.412 22.709 108.188 25.359 110.727 28.26 113.291 30.498 115.092 32.744 116.742 32.744 116.744 35.719 118.711 38.678 120.438 41.604 121.939 44.463 123.227 44.463 123.225 47.945 124.561 50.631 125.428 53.836 126.287 56.854 126.926 60.158 127.441 63.322 127.752 66.828 127.875 68.559 127.84 70.059 127.73 69.498 124.949 69.5 124.949 68.561 120.867 67.73 117.697 67.021 115.293 66.332 113.275 Z" fill="none" stroke="#2e3440" stroke-width="0.25" stroke-opacity="1" stroke-linejoin="round" stroke-linecap="round"/>
 <path id="Star" d="M76.125 34.125 L73.615 38.67 68.517 39.653 72.063 43.445 71.423 48.597 76.125 46.396 80.827 48.597 80.187 43.445 83.733 39.653 78.635 38.67 Z" fill="#2e3440" fill-opacity="1" stroke="none"/>
</svg>
