<?xml version="1.0" encoding="UTF-8"?>
<svg width="512px" height="512px" viewBox="0 0 512 512" xmlns="http://www.w3.org/2000/svg" xmlns:xlink="http://www.w3.org/1999/xlink" version="1.1">
 <!-- Generated by Pixelmator Pro 2.2 -->
 <path id="Unicorn" d="M267.31 512 C239.203 512.019 171.795 505.52 108.254 449.707 19.274 371.547 0.037 283.519 0.037 283.519 0.037 283.519 28.55 271.775 56.616 234.806 53.371 235.994 50.037 236.817 46.719 237.066 23.515 238.811 -1.091 229.56 0.037 221.849 0.557 218.298 18.05 226.163 40 219.447 59.398 213.511 73.597 199.023 73.597 199.023 73.597 199.023 59.741 206.934 46.365 206.232 28.44 205.29 16.42 198.371 16.659 193.017 16.903 187.522 41.287 202.299 64.048 185.808 76.101 177.076 85.366 168.814 92.37 161.667 96.181 155.28 100.389 148.971 105.071 142.96 157.95 75.081 209.843 62.068 241.758 62.068 266.368 62.068 289.749 68.242 310.835 79.34 311.566 78.683 312.294 78 313.018 77.286 332.634 57.949 323.6 33.82 332.823 34.838 337.073 35.306 342.693 49.254 342.725 62.068 342.754 73.432 337.42 83.693 337.42 83.693 337.42 83.693 340.483 83.26 351.566 71.68 362.649 60.099 357.922 45.583 363.237 46.451 368.492 47.308 370.575 57.854 368.188 71.68 367.023 78.427 363.135 85.875 359.73 91.397 L500.147 2.181 C504.313 -0.91 509.268 -0.689 511.215 2.674 513.161 6.038 511.363 11.272 507.197 14.363 L362.88 137.502 363.944 139.356 C363.944 139.356 395.526 277.671 396.834 292.329 397.54 300.244 399.572 346.298 344.14 336.779 325.527 333.582 315.848 289.125 315.848 289.125 315.848 289.125 303.044 281.152 297.811 275.51 292.501 269.785 284.726 255.487 284.726 255.487 284.726 255.487 273.175 251.004 267.751 247.879 262.917 245.093 255.46 239.543 250.794 235.971 255.947 243.959 273.293 274.533 273.763 324.765 274.323 384.639 252.19 421.675 252.19 421.675 252.19 421.675 262.85 441.861 269.519 464.123 276.46 487.294 280.836 511.376 280.836 511.376 280.836 511.376 275.915 511.994 267.31 512 Z" fill="#d8dee9" fill-opacity="1" stroke="none"/>
 <path id="stroke-path" d="M261.359 442.836 L256.016 430.648 256.023 430.648 251.625 421.672 254.102 416.984 257.289 410.039 260.172 402.813 262.195 397.094 266.219 383.531 269.148 370.547 271.328 357.086 272.773 342.273 273.266 328.961 272.922 314.5 272.031 303.75 270.367 291.867 268.391 281.898 265.859 272.055 263.086 263.32 259.266 253.406 254.742 243.82 250.156 235.875 250.758 235.336 260.625 242.625 260.625 242.617 268.023 247.461 274.281 250.57 285.063 255.094 292.289 267.219 295.57 271.984 298.195 275.203 301.047 277.898 305.352 281.336 310.5 285.023 316.281 288.82 318.352 296.781 320.695 304.195 323.031 310.477 325.852 316.906 328.875 322.609 328.867 322.609 331.914 327.227 335.352 331.234 338.242 333.688 341.391 335.461 342.938 336 345.523 336.508 345.523 336.516 350.414 337.164 350.414 337.156 355.039 337.5 359.297 337.563 363.297 337.359 368.688 336.594 371.945 335.797 374.984 334.773 377.711 333.594 380.172 332.25 384.57 329.023 387.234 326.352 390.188 322.398 392.43 318.234 394.117 313.852 395.5 308.477 396.289 302.953 396.547 297.695 396.297 292.008 394.906 283.547 391.797 267.867 380.914 217.289 363.469 139.547 362.234 137.398 507.977 13.063 509.164 11.789 510.141 10.367 510.898 8.805 511.328 7.367 511.5 5.656 511.328 4.344 510.844 3.063 510.125 2.063 508.57 0.984 506.289 0.516 503.906 0.844 501.555 1.852 359.664 92.031 359.094 91.492 362.195 86.125 364.617 81.188 366.594 76.008 367.586 72.195 368.43 66.047 368.641 59.414 368.156 54.68 367.625 52.398 366.883 50.422 365.656 48.461 364.18 47.281 362.664 46.93 362.297 47.023 361.828 47.367 361.281 48.344 360.969 49.367 359.578 56.945 358.406 61.234 357.031 64.633 355.086 68.086 352.195 71.75 345.719 78.172 341.055 82.125 338.938 83.547 337.313 84.289 336.82 83.82 339.344 77.75 341.227 71.063 342.133 64.695 342.219 61.492 342.023 57.867 341.586 54.344 340.648 49.742 339.734 46.477 338.344 42.641 336.766 39.383 335.547 37.516 333.953 35.883 332.727 35.344 331.563 35.391 330.813 35.695 329.953 36.539 329.281 37.852 328.461 41.023 327.18 49.305 326.172 54.336 324.617 59.75 322.5 64.906 320.438 68.719 317.867 72.523 314.719 76.266 310.922 79.945 303.633 76.344 295.445 72.828 287.109 69.82 280.703 67.883 272.07 65.766 265.453 64.516 265.453 64.508 256.555 63.32 256.555 63.328 249.742 62.789 241.758 62.57 234.781 62.781 226.328 63.57 219.18 64.688 219.18 64.695 211.594 66.336 203.68 68.547 203.68 68.539 195.492 71.375 189.125 73.961 182.586 76.969 175.93 80.414 169.148 84.32 162.242 88.734 155.258 93.641 150.539 97.227 143.367 103.094 143.359 103.086 138.563 107.305 131.273 114.164 123.945 121.641 116.57 129.781 111.64 135.578 105.461 143.273 101.227 148.961 96.469 155.992 92.758 161.984 86.258 168.32 79.539 174.289 71.867 180.547 63.789 186.609 59.469 189.281 55.14 191.32 49.789 193.047 44.586 194.023 40.086 194.375 36.281 194.359 31.015 193.945 19.554 192.25 18.094 192.281 17.289 192.664 17.164 192.969 17.195 193.688 17.695 195.102 19.297 197.125 21.148 198.641 23.508 200.109 26.437 201.523 29.758 202.773 33.586 203.875 39.234 205.008 43.937 205.563 48.226 205.781 53.164 205.422 57.929 204.523 63.844 202.781 69.086 200.695 73.765 198.391 74.25 199.117 67.492 205.039 60.086 210.375 52.898 214.602 48.055 216.961 44.617 218.383 37.063 220.789 31.101 221.984 23.703 222.703 15.508 222.617 2.351 221.391 1.07 221.516 0.594 221.875 0.57 223.023 1.32 224.719 2.828 226.438 5.422 228.398 7.758 229.742 11.984 231.648 11.984 231.641 16.992 233.359 20.601 234.336 26.492 235.555 26.492 235.563 30.554 236.148 36.961 236.688 41.25 236.789 46.656 236.57 49.765 236.18 53.39 235.336 56.805 234.219 57.235 234.836 51.078 242.563 44.547 249.992 37.531 257.188 30.188 263.914 23.328 269.547 15.179 275.453 7.054 280.508 0.617 283.781 2.461 290.656 5.515 300.133 8.07 307.211 11.773 316.523 11.781 316.523 16.39 327.023 20.484 335.602 25.148 344.68 30.438 354.234 36.36 364.203 40.688 371.031 47.75 381.531 52.867 388.664 61.164 399.539 67.125 406.859 73.445 414.234 80.133 421.648 80.125 421.648 90.836 432.75 101.438 442.906 113.039 453.164 121.992 460.367 130.977 466.969 130.977 466.977 142.875 474.844 154.711 481.75 166.414 487.758 177.852 492.906 177.852 492.898 191.781 498.242 202.523 501.711 215.344 505.148 227.414 507.703 240.633 509.766 253.289 511.008 267.313 511.5 274.234 511.359 280.234 510.922 277.992 499.797 278 499.797 274.242 483.469 270.922 470.789 268.086 461.172 265.328 453.102 Z" fill="none" stroke="#2e3440" stroke-width="1" stroke-opacity="1" stroke-linejoin="round" stroke-linecap="round"/>
 <path id="Star" d="M304.5 136.5 L294.458 154.678 274.066 158.612 288.252 173.779 285.691 194.388 304.5 185.585 323.309 194.388 320.748 173.779 334.934 158.612 314.542 154.678 Z" fill="#2e3440" fill-opacity="1" stroke="none"/>
</svg>
