<?xml version="1.0" encoding="UTF-8"?>
<svg width="50px" height="50px" viewBox="0 0 50 50" xmlns="http://www.w3.org/2000/svg" xmlns:xlink="http://www.w3.org/1999/xlink" version="1.1">
 <!-- Generated by Pixelmator Pro 2.2 -->
 <path id="Unicorn" d="M26.105 50 C23.36 50.002 16.777 49.367 10.572 43.917 1.882 36.284 0.004 27.687 0.004 27.687 0.004 27.687 2.788 26.541 5.529 22.93 5.212 23.046 4.886 23.127 4.562 23.151 2.296 23.321 -0.107 22.418 0.004 21.665 0.054 21.318 1.763 22.086 3.906 21.43 5.801 20.851 7.187 19.436 7.187 19.436 7.187 19.436 5.834 20.208 4.528 20.14 2.777 20.048 1.604 19.372 1.627 18.849 1.651 18.313 4.032 19.756 6.255 18.145 7.432 17.293 8.337 16.486 9.021 15.788 9.393 15.164 9.804 14.548 10.261 13.961 15.425 7.332 20.492 6.061 23.609 6.061 26.012 6.061 28.296 6.664 30.355 7.748 30.426 7.684 30.498 7.617 30.568 7.547 32.484 5.659 31.602 3.303 32.502 3.402 32.917 3.448 33.466 4.81 33.469 6.061 33.472 7.171 32.951 8.173 32.951 8.173 32.951 8.173 33.25 8.131 34.333 7 35.415 5.869 34.953 4.452 35.472 4.536 35.986 4.62 36.189 5.65 35.956 7 35.842 7.659 35.462 8.386 35.13 8.925 L48.843 0.213 C49.249 -0.089 49.733 -0.067 49.923 0.261 50.113 0.59 49.938 1.101 49.531 1.403 L35.438 13.428 35.541 13.609 C35.541 13.609 38.626 27.116 38.753 28.548 38.822 29.321 39.021 33.818 33.607 32.889 31.79 32.576 30.845 28.235 30.845 28.235 30.845 28.235 29.594 27.456 29.083 26.905 28.565 26.346 27.805 24.95 27.805 24.95 27.805 24.95 26.677 24.512 26.148 24.207 25.676 23.935 24.947 23.393 24.492 23.044 24.995 23.824 26.689 26.81 26.735 31.715 26.789 37.562 24.628 41.179 24.628 41.179 24.628 41.179 25.669 43.15 26.32 45.325 26.998 47.587 27.425 49.939 27.425 49.939 27.425 49.939 26.945 49.999 26.105 50 Z" fill="#d8dee9" fill-opacity="1" stroke="none"/>
 <path id="stroke-path" d="M25.523 43.246 L25.002 42.056 25.002 42.056 24.573 41.179 24.815 40.721 25.126 40.043 25.407 39.337 25.605 38.779 25.998 37.454 26.284 36.186 26.497 34.872 26.638 33.425 26.686 32.125 26.653 30.713 26.566 29.663 26.403 28.503 26.21 27.529 25.963 26.568 25.692 25.715 25.319 24.747 24.877 23.811 24.429 23.035 24.488 22.982 25.452 23.694 25.452 23.693 26.174 24.166 26.785 24.47 27.838 24.912 28.544 26.096 28.864 26.561 29.121 26.875 29.399 27.139 29.819 27.474 30.322 27.834 30.887 28.205 31.089 28.983 31.318 29.707 31.546 30.32 31.821 30.948 32.117 31.505 32.116 31.505 32.413 31.956 32.749 32.347 33.031 32.587 33.339 32.76 33.49 32.813 33.743 32.862 33.743 32.863 34.22 32.926 34.22 32.925 34.672 32.959 35.088 32.965 35.478 32.945 36.005 32.871 36.323 32.793 36.62 32.693 36.886 32.578 37.126 32.446 37.556 32.131 37.816 31.87 38.104 31.484 38.323 31.078 38.488 30.65 38.623 30.125 38.7 29.585 38.725 29.072 38.701 28.516 38.565 27.69 38.261 26.159 37.199 21.22 35.495 13.628 35.374 13.418 49.607 1.276 49.723 1.151 49.818 1.012 49.892 0.86 49.934 0.719 49.951 0.552 49.934 0.424 49.887 0.299 49.817 0.201 49.665 0.096 49.442 0.05 49.21 0.082 48.98 0.181 35.123 8.987 35.068 8.935 35.371 8.411 35.607 7.928 35.8 7.423 35.897 7.05 35.979 6.45 36 5.802 35.953 5.34 35.901 5.117 35.828 4.924 35.709 4.733 35.564 4.617 35.416 4.583 35.381 4.592 35.335 4.626 35.281 4.721 35.251 4.821 35.115 5.561 35.001 5.98 34.866 6.312 34.676 6.649 34.394 7.007 33.762 7.634 33.306 8.02 33.099 8.159 32.941 8.231 32.893 8.186 33.139 7.593 33.323 6.94 33.411 6.318 33.42 6.005 33.401 5.651 33.358 5.307 33.266 4.858 33.177 4.539 33.041 4.164 32.887 3.846 32.768 3.664 32.613 3.504 32.493 3.452 32.379 3.456 32.306 3.486 32.222 3.568 32.156 3.696 32.076 4.006 31.951 4.815 31.853 5.306 31.701 5.835 31.494 6.339 31.293 6.711 31.042 7.082 30.734 7.448 30.363 7.807 29.652 7.455 28.852 7.112 28.038 6.818 27.412 6.629 26.569 6.422 25.923 6.3 25.923 6.3 25.054 6.184 25.054 6.184 24.389 6.132 23.609 6.11 22.928 6.131 22.102 6.208 21.404 6.317 21.404 6.318 20.663 6.478 19.891 6.694 19.891 6.693 19.091 6.97 18.469 7.223 17.831 7.517 17.181 7.853 16.518 8.234 15.844 8.665 15.162 9.145 14.701 9.495 14.001 10.068 14 10.067 13.531 10.479 12.82 11.149 12.104 11.879 11.384 12.674 10.902 13.24 10.299 13.992 9.885 14.547 9.421 15.234 9.058 15.819 8.424 16.438 7.767 17.02 7.018 17.632 6.229 18.224 5.808 18.485 5.385 18.684 4.862 18.852 4.354 18.948 3.915 18.982 3.543 18.98 3.029 18.94 1.91 18.774 1.767 18.777 1.688 18.815 1.676 18.845 1.679 18.915 1.728 19.053 1.884 19.25 2.065 19.398 2.296 19.542 2.582 19.68 2.906 19.802 3.28 19.91 3.831 20.02 4.291 20.074 4.71 20.096 5.192 20.061 5.657 19.973 6.235 19.803 6.747 19.599 7.204 19.374 7.251 19.445 6.591 20.023 5.868 20.544 5.166 20.957 4.693 21.188 4.357 21.326 3.619 21.561 3.037 21.678 2.315 21.748 1.514 21.74 0.23 21.62 0.105 21.632 0.058 21.667 0.056 21.78 0.129 21.945 0.276 22.113 0.529 22.305 0.758 22.436 1.17 22.622 1.17 22.621 1.659 22.789 2.012 22.884 2.587 23.003 2.587 23.004 2.984 23.061 3.609 23.114 4.028 23.124 4.556 23.103 4.86 23.064 5.214 22.982 5.547 22.873 5.589 22.933 4.988 23.688 4.35 24.413 3.665 25.116 2.948 25.773 2.278 26.323 1.482 26.9 0.689 27.393 0.06 27.713 0.24 28.384 0.539 29.31 0.788 30.001 1.15 30.91 1.151 30.91 1.601 31.936 2 32.774 2.456 33.66 2.972 34.593 3.551 35.567 3.973 36.234 4.663 37.259 5.163 37.955 5.973 39.017 6.555 39.732 7.172 40.453 7.825 41.177 7.825 41.177 8.871 42.261 9.906 43.253 11.039 44.254 11.913 44.958 12.791 45.602 12.791 45.603 13.953 46.371 15.108 47.046 16.251 47.633 17.368 48.135 17.368 48.135 18.729 48.656 19.778 48.995 21.03 49.331 22.208 49.58 23.499 49.782 24.735 49.903 26.105 49.951 26.781 49.937 27.367 49.895 27.148 48.808 27.148 48.808 26.781 47.214 26.457 45.975 26.18 45.036 25.911 44.248 Z" fill="none" stroke="#2e3440" stroke-width="0.098" stroke-opacity="1" stroke-linejoin="round" stroke-linecap="round"/>
 <path id="Star" d="M29.736 13.33 L28.756 15.105 26.764 15.489 28.15 16.971 27.9 18.983 29.736 18.123 31.573 18.983 31.323 16.971 32.708 15.489 30.717 15.105 Z" fill="#2e3440" fill-opacity="1" stroke="none"/>
</svg>
