<?xml version="1.0" encoding="UTF-8"?>
<!DOCTYPE svg PUBLIC "-//W3C//DTD SVG 1.1//EN" "http://www.w3.org/Graphics/SVG/1.1/DTD/svg11.dtd">
<svg xmlns="http://www.w3.org/2000/svg" version="1.1" width="400px" height="400px" style="shape-rendering:geometricPrecision; text-rendering:geometricPrecision; image-rendering:optimizeQuality; fill-rule:evenodd; clip-rule:evenodd" xmlns:xlink="http://www.w3.org/1999/xlink">
<g><path style="opacity:0.94" fill="#000000" d="M 59.5,32.5 C 60.3764,32.3691 61.0431,32.7025 61.5,33.5C 60.3306,42.5147 58.9973,51.5147 57.5,60.5C 56.3788,67.8557 59.3788,71.6891 66.5,72C 71.8122,66.3564 77.4789,61.023 83.5,56C 86.598,54.9327 88.598,55.9327 89.5,59C 85.5348,67.9573 80.3681,76.124 74,83.5C 71.7429,87.6829 69.7429,92.0162 68,96.5C 65.3585,106.733 63.1918,117.066 61.5,127.5C 61.562,134.872 64.3953,140.872 70,145.5C 69.9548,141.716 69.7881,137.883 69.5,134C 68.7641,127.548 70.4308,121.882 74.5,117C 76.0444,115.813 77.7111,115.48 79.5,116C 78.8742,116.75 78.3742,117.584 78,118.5C 77.3333,123.833 77.3333,129.167 78,134.5C 83.4029,147.085 89.7362,159.085 97,170.5C 102.692,178.52 109.859,183.853 118.5,186.5C 114.522,181.354 110.355,176.354 106,171.5C 104.596,167.464 103.262,163.464 102,159.5C 101.11,156.294 101.443,153.294 103,150.5C 108.252,158.427 113.919,166.093 120,173.5C 126.628,180.293 133.461,186.96 140.5,193.5C 144.419,196.304 148.586,198.637 153,200.5C 152.062,195.513 150.729,190.513 149,185.5C 148.333,179.5 148.333,173.5 149,167.5C 149.216,165.616 149.883,163.949 151,162.5C 153.788,172.554 156.788,182.554 160,192.5C 163.62,197.789 167.62,202.789 172,207.5C 173.628,210.591 175.128,213.757 176.5,217C 183.521,219.928 190.854,221.094 198.5,220.5C 202.833,220.333 207.167,220.167 211.5,220C 214.022,218.659 216.689,217.826 219.5,217.5C 220.181,213.804 221.681,210.471 224,207.5C 228.38,202.789 232.38,197.789 236,192.5C 238.795,182.449 241.795,172.449 245,162.5C 246.117,163.949 246.784,165.616 247,167.5C 247.667,173.5 247.667,179.5 247,185.5C 245.273,190.501 243.94,195.501 243,200.5C 246.39,198.554 249.89,196.721 253.5,195C 257.5,191.333 261.5,187.667 265.5,184C 268.333,179.833 271.833,176.333 276,173.5C 281.921,165.977 287.588,158.31 293,150.5C 294.557,153.294 294.89,156.294 294,159.5C 292.738,163.464 291.404,167.464 290,171.5C 285.068,176.391 281.068,181.725 278,187.5C 279.8,185.683 281.966,184.516 284.5,184C 288.458,181.766 291.958,178.933 295,175.5C 303.473,162.341 311.14,148.675 318,134.5C 318.667,129.167 318.667,123.833 318,118.5C 317.626,117.584 317.126,116.75 316.5,116C 318.289,115.48 319.956,115.813 321.5,117C 323.142,119.786 324.642,122.619 326,125.5C 326.543,132.219 326.543,138.886 326,145.5C 331.246,140.674 334.079,134.674 334.5,127.5C 332.473,117.144 330.306,106.81 328,96.5C 323.2,85.5598 317.033,75.5598 309.5,66.5C 306.952,63.4508 306.286,60.1175 307.5,56.5C 309.098,55.5153 310.765,55.3486 312.5,56C 318.521,61.023 324.188,66.3564 329.5,72C 336.621,71.6891 339.621,67.8557 338.5,60.5C 337.087,51.6809 335.754,42.8475 334.5,34C 334.833,33.5 335.167,33 335.5,32.5C 344.656,43.0602 348.49,55.3935 347,69.5C 342.496,82.9033 341.496,96.57 344,110.5C 345.628,115.754 347.795,120.754 350.5,125.5C 357.652,120.195 363.152,113.529 367,105.5C 366.313,89.5109 365.479,73.5109 364.5,57.5C 364.667,51.5 364.833,45.5 365,39.5C 365.249,38.376 365.749,37.376 366.5,36.5C 373.585,55.5609 378.419,75.2276 381,95.5C 384.746,91.9251 387.912,87.9251 390.5,83.5C 391.192,84.0253 391.692,84.6919 392,85.5C 392.713,92.8875 391.38,99.8875 388,106.5C 380.328,117.175 372.661,127.842 365,138.5C 352.193,150.973 339.36,163.473 326.5,176C 305.9,190.632 283.9,202.632 260.5,212C 254.998,215.585 249.331,218.919 243.5,222C 241.667,223.833 239.833,225.667 238,227.5C 238.01,229.471 239.176,230.471 241.5,230.5C 254.175,227.498 266.841,224.498 279.5,221.5C 282.964,221.439 284.964,223.106 285.5,226.5C 283.873,233.969 281.04,240.969 277,247.5C 273.068,252.607 267.901,255.274 261.5,255.5C 255.617,253.375 250.451,254.375 246,258.5C 243.235,262.261 240.902,266.261 239,270.5C 235.874,280.722 233.207,291.055 231,301.5C 226.333,311.5 221.667,321.5 217,331.5C 213.605,337.896 209.105,343.396 203.5,348C 199.064,350.144 194.731,349.978 190.5,347.5C 189.531,344.698 187.698,342.698 185,341.5C 179.851,331.706 174.517,322.039 169,312.5C 164.599,298.628 160.599,284.628 157,270.5C 154.378,264.762 150.878,259.595 146.5,255C 142.304,254.336 138.138,254.503 134,255.5C 127.86,255.038 122.86,252.371 119,247.5C 114.96,240.969 112.127,233.969 110.5,226.5C 111.036,223.106 113.036,221.439 116.5,221.5C 129.179,224.501 141.846,227.501 154.5,230.5C 156.824,230.471 157.99,229.471 158,227.5C 156.167,225.667 154.333,223.833 152.5,222C 138.566,214.2 124.232,207.2 109.5,201C 91.9582,191.734 75.6249,180.734 60.5,168C 50.6221,158.122 40.7887,148.289 31,138.5C 25.3251,130.827 19.6585,123.161 14,115.5C 9.83409,109.587 6.50076,103.254 4,96.5C 3.50098,92.1794 3.33432,87.8461 3.5,83.5C 6.47004,84.3084 8.30337,86.3084 9,89.5C 11,91.5 13,93.5 15,95.5C 16.9072,84.4828 18.9072,73.4828 21,62.5C 23.1523,53.5442 25.9857,44.8775 29.5,36.5C 30.2508,37.376 30.7508,38.376 31,39.5C 31.1667,45.5 31.3333,51.5 31.5,57.5C 30.5206,73.5109 29.6872,89.5109 29,105.5C 30.8717,110.308 33.5384,114.642 37,118.5C 39.3968,121.4 42.2302,123.733 45.5,125.5C 52.5411,113.794 55.0411,101.127 53,87.5C 45.4298,67.9115 47.5964,49.5782 59.5,32.5 Z"/></g>
</svg>
