<?xml version="1.0" encoding="UTF-8"?>
<svg xmlns="http://www.w3.org/2000/svg" xmlns:xlink="http://www.w3.org/1999/xlink" width="38pt" height="38pt" viewBox="0 0 38 38" version="1.1">
<defs>
<filter id="alpha" filterUnits="objectBoundingBox" x="0%" y="0%" width="100%" height="100%">
  <feColorMatrix type="matrix" in="SourceGraphic" values="0 0 0 0 1 0 0 0 0 1 0 0 0 0 1 0 0 0 1 0"/>
</filter>
<mask id="mask0">
  <g filter="url(#alpha)">
<rect x="0" y="0" width="38" height="38" style="fill:rgb(0%,0%,0%);fill-opacity:0.941176;stroke:none;"/>
  </g>
</mask>
<clipPath id="clip1">
  <rect x="0" y="0" width="38" height="38"/>
</clipPath>
<g id="surface5" clip-path="url(#clip1)">
<path style=" stroke:none;fill-rule:evenodd;fill:rgb(0%,0%,0%);fill-opacity:1;" d="M 5.652344 3.085938 C 5.734375 3.074219 5.800781 3.105469 5.84375 3.183594 C 5.730469 4.039062 5.605469 4.894531 5.460938 5.746094 C 5.355469 6.445312 5.640625 6.808594 6.316406 6.839844 C 6.820312 6.304688 7.359375 5.796875 7.933594 5.320312 C 8.226562 5.21875 8.417969 5.3125 8.503906 5.605469 C 8.125 6.457031 7.636719 7.230469 7.03125 7.933594 C 6.816406 8.328125 6.625 8.742188 6.460938 9.167969 C 6.210938 10.140625 6.003906 11.121094 5.84375 12.113281 C 5.847656 12.8125 6.117188 13.382812 6.648438 13.824219 C 6.644531 13.464844 6.628906 13.097656 6.601562 12.730469 C 6.53125 12.117188 6.691406 11.578125 7.078125 11.113281 C 7.222656 11.003906 7.382812 10.96875 7.550781 11.019531 C 7.492188 11.089844 7.445312 11.171875 7.410156 11.257812 C 7.347656 11.765625 7.347656 12.269531 7.410156 12.777344 C 7.921875 13.972656 8.523438 15.113281 9.214844 16.199219 C 9.753906 16.960938 10.4375 17.464844 11.257812 17.71875 C 10.878906 17.230469 10.484375 16.753906 10.070312 16.292969 C 9.9375 15.910156 9.808594 15.527344 9.691406 15.152344 C 9.605469 14.847656 9.636719 14.5625 9.785156 14.296875 C 10.285156 15.050781 10.824219 15.777344 11.398438 16.484375 C 12.03125 17.128906 12.679688 17.761719 13.347656 18.382812 C 13.71875 18.648438 14.117188 18.871094 14.535156 19.046875 C 14.445312 18.574219 14.320312 18.097656 14.15625 17.621094 C 14.089844 17.050781 14.089844 16.484375 14.15625 15.914062 C 14.175781 15.734375 14.238281 15.574219 14.34375 15.4375 C 14.609375 16.394531 14.894531 17.34375 15.199219 18.289062 C 15.542969 18.789062 15.925781 19.265625 16.339844 19.710938 C 16.496094 20.007812 16.636719 20.308594 16.765625 20.613281 C 17.433594 20.894531 18.132812 21.003906 18.859375 20.949219 C 19.269531 20.929688 19.679688 20.914062 20.09375 20.898438 C 20.332031 20.773438 20.585938 20.695312 20.851562 20.664062 C 20.917969 20.3125 21.058594 19.996094 21.28125 19.710938 C 21.695312 19.265625 22.074219 18.789062 22.421875 18.289062 C 22.683594 17.332031 22.96875 16.382812 23.273438 15.4375 C 23.382812 15.574219 23.445312 15.734375 23.464844 15.914062 C 23.527344 16.484375 23.527344 17.050781 23.464844 17.621094 C 23.300781 18.097656 23.175781 18.574219 23.085938 19.046875 C 23.40625 18.863281 23.738281 18.6875 24.082031 18.523438 C 24.460938 18.175781 24.84375 17.828125 25.222656 17.480469 C 25.492188 17.085938 25.824219 16.75 26.21875 16.484375 C 26.78125 15.769531 27.320312 15.039062 27.835938 14.296875 C 27.984375 14.5625 28.015625 14.847656 27.929688 15.152344 C 27.808594 15.527344 27.683594 15.910156 27.550781 16.292969 C 27.082031 16.757812 26.703125 17.265625 26.410156 17.8125 C 26.582031 17.640625 26.785156 17.527344 27.027344 17.480469 C 27.402344 17.269531 27.734375 17 28.023438 16.671875 C 28.828125 15.421875 29.558594 14.125 30.210938 12.777344 C 30.273438 12.269531 30.273438 11.765625 30.210938 11.257812 C 30.175781 11.171875 30.128906 11.089844 30.066406 11.019531 C 30.238281 10.96875 30.394531 11.003906 30.542969 11.113281 C 30.699219 11.378906 30.839844 11.648438 30.96875 11.921875 C 31.023438 12.5625 31.023438 13.195312 30.96875 13.824219 C 31.46875 13.363281 31.738281 12.792969 31.777344 12.113281 C 31.585938 11.128906 31.378906 10.148438 31.160156 9.167969 C 30.703125 8.128906 30.117188 7.179688 29.402344 6.316406 C 29.160156 6.027344 29.097656 5.710938 29.210938 5.367188 C 29.363281 5.273438 29.523438 5.257812 29.6875 5.320312 C 30.257812 5.796875 30.796875 6.304688 31.300781 6.839844 C 31.980469 6.808594 32.265625 6.445312 32.15625 5.746094 C 32.023438 4.910156 31.898438 4.070312 31.777344 3.230469 C 31.808594 3.183594 31.839844 3.136719 31.871094 3.085938 C 32.742188 4.089844 33.105469 5.261719 32.964844 6.601562 C 32.539062 7.875 32.441406 9.175781 32.679688 10.496094 C 32.835938 10.996094 33.039062 11.472656 33.296875 11.921875 C 33.976562 11.417969 34.5 10.785156 34.863281 10.023438 C 34.800781 8.503906 34.71875 6.984375 34.628906 5.460938 C 34.644531 4.890625 34.660156 4.324219 34.675781 3.753906 C 34.699219 3.644531 34.746094 3.550781 34.816406 3.46875 C 35.492188 5.277344 35.949219 7.148438 36.195312 9.074219 C 36.550781 8.734375 36.851562 8.351562 37.097656 7.933594 C 37.164062 7.980469 37.210938 8.046875 37.238281 8.121094 C 37.308594 8.824219 37.179688 9.488281 36.859375 10.117188 C 36.132812 11.132812 35.402344 12.144531 34.675781 13.15625 C 33.457031 14.34375 32.238281 15.53125 31.015625 16.71875 C 29.058594 18.109375 26.96875 19.25 24.746094 20.140625 C 24.226562 20.480469 23.6875 20.796875 23.132812 21.089844 C 22.957031 21.265625 22.785156 21.4375 22.609375 21.613281 C 22.609375 21.800781 22.722656 21.894531 22.941406 21.898438 C 24.148438 21.613281 25.351562 21.328125 26.550781 21.042969 C 26.882812 21.035156 27.070312 21.195312 27.121094 21.515625 C 26.96875 22.226562 26.699219 22.890625 26.316406 23.511719 C 25.941406 23.996094 25.449219 24.25 24.84375 24.273438 C 24.285156 24.070312 23.792969 24.164062 23.371094 24.558594 C 23.105469 24.914062 22.886719 25.292969 22.703125 25.699219 C 22.40625 26.667969 22.15625 27.648438 21.945312 28.640625 C 21.5 29.59375 21.058594 30.542969 20.613281 31.492188 C 20.292969 32.101562 19.863281 32.621094 19.332031 33.058594 C 18.910156 33.265625 18.5 33.246094 18.097656 33.011719 C 18.003906 32.746094 17.832031 32.554688 17.574219 32.441406 C 17.085938 31.511719 16.578125 30.59375 16.054688 29.6875 C 15.636719 28.371094 15.257812 27.039062 14.914062 25.699219 C 14.664062 25.152344 14.332031 24.660156 13.917969 24.226562 C 13.519531 24.160156 13.125 24.179688 12.730469 24.273438 C 12.148438 24.230469 11.671875 23.976562 11.304688 23.511719 C 10.921875 22.890625 10.652344 22.226562 10.496094 21.515625 C 10.546875 21.195312 10.738281 21.035156 11.066406 21.042969 C 12.273438 21.328125 13.476562 21.613281 14.675781 21.898438 C 14.898438 21.894531 15.007812 21.800781 15.011719 21.613281 C 14.835938 21.4375 14.660156 21.265625 14.488281 21.089844 C 13.164062 20.347656 11.800781 19.683594 10.402344 19.09375 C 8.734375 18.214844 7.183594 17.167969 5.746094 15.960938 C 4.808594 15.023438 3.875 14.085938 2.945312 13.15625 C 2.40625 12.429688 1.867188 11.699219 1.328125 10.972656 C 0.933594 10.410156 0.617188 9.808594 0.378906 9.167969 C 0.332031 8.757812 0.316406 8.34375 0.332031 7.933594 C 0.613281 8.007812 0.789062 8.199219 0.855469 8.503906 C 1.046875 8.691406 1.234375 8.882812 1.425781 9.074219 C 1.605469 8.027344 1.796875 6.980469 1.996094 5.9375 C 2.199219 5.085938 2.46875 4.261719 2.800781 3.46875 C 2.875 3.550781 2.921875 3.644531 2.945312 3.753906 C 2.960938 4.324219 2.976562 4.890625 2.992188 5.460938 C 2.898438 6.984375 2.820312 8.503906 2.753906 10.023438 C 2.933594 10.480469 3.1875 10.890625 3.515625 11.257812 C 3.742188 11.53125 4.011719 11.753906 4.324219 11.921875 C 4.992188 10.808594 5.230469 9.605469 5.035156 8.3125 C 4.316406 6.453125 4.523438 4.710938 5.652344 3.085938 Z M 5.652344 3.085938 "/>
</g>
</defs>
<g id="surface1">
<use xlink:href="#surface5" mask="url(#mask0)"/>
</g>
</svg>
