<?xml version="1.0" encoding="UTF-8"?>
<svg width="1024px" height="1024px" viewBox="0 0 1024 1024" xmlns="http://www.w3.org/2000/svg" xmlns:xlink="http://www.w3.org/1999/xlink" version="1.1">
 <!-- Generated by Pixelmator Pro 2.2 -->
 <path id="Unicorn" d="M534.621 1024 C478.407 1024.039 343.591 1011.041 216.509 899.414 38.549 743.094 0.075 567.039 0.075 567.039 0.075 567.039 57.101 543.551 113.233 469.613 106.743 471.988 100.074 473.635 93.439 474.133 47.031 477.622 -2.182 459.12 0.075 443.699 1.114 436.596 36.101 452.327 80 438.894 118.797 427.022 147.194 398.047 147.194 398.047 147.194 398.047 119.482 413.868 92.731 412.464 56.881 410.581 32.841 396.742 33.318 386.034 33.807 375.045 82.575 404.598 128.096 371.617 152.202 354.153 170.732 337.628 184.741 323.335 192.362 310.561 200.778 297.943 210.143 285.92 315.901 150.161 419.686 124.137 483.516 124.137 532.736 124.137 579.498 136.485 621.67 158.681 623.133 157.366 624.589 155.999 626.037 154.572 665.268 115.899 647.201 67.64 665.646 69.676 674.147 70.613 685.386 98.508 685.451 124.137 685.508 146.865 674.841 167.386 674.841 167.386 674.841 167.386 680.967 166.52 703.133 143.359 725.299 120.198 715.844 91.167 726.474 92.902 736.984 94.616 741.15 115.708 736.376 143.359 734.046 156.854 726.271 171.75 719.46 182.794 L1000.295 4.363 C1008.627 -1.82 1018.537 -1.378 1022.43 5.349 1026.323 12.077 1022.726 22.544 1014.394 28.726 L725.761 275.005 727.889 278.712 C727.889 278.712 791.053 555.343 793.668 584.659 795.08 600.489 799.144 692.597 688.28 673.558 651.054 667.165 631.696 578.251 631.696 578.251 631.696 578.251 606.089 562.304 595.623 551.021 585.002 539.57 569.453 510.975 569.453 510.975 569.453 510.975 546.35 502.009 535.502 495.758 525.835 490.187 510.92 479.087 501.588 471.942 511.895 487.919 546.587 549.066 547.527 649.531 548.647 769.279 504.381 843.35 504.381 843.35 504.381 843.35 525.701 883.722 539.039 928.246 552.921 974.588 561.673 1022.753 561.673 1022.753 561.673 1022.753 551.83 1023.988 534.621 1024 Z" fill="#d8dee9" fill-opacity="1" stroke="none"/>
 <path id="stroke-path" d="M522.719 885.672 L512.031 861.297 512.047 861.297 503.25 843.344 508.203 833.969 514.578 820.078 520.344 805.625 524.391 794.188 532.438 767.063 538.297 741.094 542.656 714.172 545.547 684.547 546.531 657.922 545.844 629 544.063 607.5 540.734 583.734 536.781 563.797 531.719 544.109 526.172 526.641 518.531 506.813 509.484 487.641 500.313 471.75 501.516 470.672 521.25 485.25 521.25 485.234 536.047 494.922 548.563 501.141 570.125 510.188 584.578 534.438 591.141 543.969 596.391 550.406 602.094 555.797 610.703 562.672 621 570.047 632.563 577.641 636.703 593.563 641.391 608.391 646.063 620.953 651.703 633.813 657.75 645.219 657.734 645.219 663.828 654.453 670.703 662.469 676.484 667.375 682.781 670.922 685.875 672 691.047 673.016 691.047 673.031 700.828 674.328 700.828 674.313 710.078 675 718.594 675.125 726.594 674.719 737.375 673.188 743.891 671.594 749.969 669.547 755.422 667.188 760.344 664.5 769.141 658.047 774.469 652.703 780.375 644.797 784.859 636.469 788.234 627.703 791 616.953 792.578 605.906 793.094 595.391 792.594 584.016 789.813 567.094 783.594 535.734 761.828 434.578 726.938 279.094 724.469 274.797 1015.953 26.125 1018.328 23.578 1020.281 20.734 1021.797 17.609 1022.656 14.734 1023 11.313 1022.656 8.688 1021.688 6.125 1020.25 4.125 1017.141 1.969 1012.578 1.031 1007.813 1.688 1003.109 3.703 719.328 184.063 718.188 182.984 724.391 172.25 729.234 162.375 733.188 152.016 735.172 144.391 736.859 132.094 737.281 118.828 736.313 109.359 735.25 104.797 733.766 100.844 731.313 96.922 728.359 94.563 725.328 93.859 724.594 94.047 723.656 94.734 722.563 96.688 721.938 98.734 719.156 113.891 716.813 122.469 714.063 129.266 710.172 136.172 704.391 143.5 691.438 156.344 682.109 164.25 677.875 167.094 674.625 168.578 673.641 167.641 678.688 155.5 682.453 142.125 684.266 129.391 684.438 122.984 684.047 115.734 683.172 108.688 681.297 99.484 679.469 92.953 676.688 85.281 673.531 78.766 671.094 75.031 667.906 71.766 665.453 70.688 663.125 70.781 661.625 71.391 659.906 73.078 658.563 75.703 656.922 82.047 654.359 98.609 652.344 108.672 649.234 119.5 645 129.813 640.875 137.438 635.734 145.047 629.438 152.531 621.844 159.891 607.266 152.688 590.891 145.656 574.219 139.641 561.406 135.766 544.141 131.531 530.906 129.031 530.906 129.016 513.109 126.641 513.109 126.656 499.484 125.578 483.516 125.141 469.563 125.563 452.656 127.141 438.359 129.375 438.359 129.391 423.188 132.672 407.359 137.094 407.359 137.078 390.984 142.75 378.25 147.922 365.172 153.938 351.859 160.828 338.297 168.641 324.484 177.469 310.516 187.281 301.078 194.453 286.734 206.188 286.719 206.172 277.125 214.609 262.547 228.328 247.891 243.281 233.141 259.563 223.281 271.156 210.922 286.547 202.453 297.922 192.938 311.984 185.516 323.969 172.516 336.641 159.078 348.578 143.734 361.094 127.578 373.219 118.938 378.563 110.281 382.641 99.578 386.094 89.172 388.047 80.172 388.75 72.563 388.719 62.031 387.891 39.109 384.5 36.188 384.563 34.578 385.328 34.328 385.938 34.391 387.375 35.391 390.203 38.594 394.25 42.297 397.281 47.016 400.219 52.875 403.047 59.516 405.547 67.172 407.75 78.469 410.016 87.875 411.125 96.453 411.563 106.328 410.844 115.859 409.047 127.688 405.563 138.172 401.391 147.531 396.781 148.5 398.234 134.984 410.078 120.172 420.75 105.797 429.203 96.109 433.922 89.234 436.766 74.125 441.578 62.203 443.969 47.406 445.406 31.016 445.234 4.703 442.781 2.141 443.031 1.188 443.75 1.141 446.047 2.641 449.438 5.656 452.875 10.844 456.797 15.516 459.484 23.969 463.297 23.969 463.281 33.984 466.719 41.203 468.672 52.984 471.109 52.984 471.125 61.109 472.297 73.922 473.375 82.5 473.578 93.313 473.141 99.531 472.359 106.781 470.672 113.609 468.438 114.469 469.672 102.156 485.125 89.094 499.984 75.063 514.375 60.375 527.828 46.656 539.094 30.359 550.906 14.109 561.016 1.234 567.563 4.922 581.313 11.031 600.266 16.141 614.422 23.547 633.047 23.563 633.047 32.781 654.047 40.969 671.203 50.297 689.359 60.875 708.469 72.719 728.406 81.375 742.063 95.5 763.063 105.734 777.328 122.328 799.078 134.25 813.719 146.891 828.469 160.266 843.297 160.25 843.297 181.672 865.5 202.875 885.813 226.078 906.328 243.984 920.734 261.953 933.938 261.953 933.953 285.75 949.688 309.422 963.5 332.828 975.516 355.703 985.813 355.703 985.797 383.563 996.484 405.047 1003.422 430.688 1010.297 454.828 1015.406 481.266 1019.531 506.578 1022.016 534.625 1023 548.469 1022.719 560.469 1021.844 555.984 999.594 556 999.594 548.484 966.938 541.844 941.578 536.172 922.344 530.656 906.203 Z" fill="none" stroke="#2e3440" stroke-width="2" stroke-opacity="1" stroke-linejoin="round" stroke-linecap="round"/>
 <path id="Star" d="M609 273 L588.916 309.357 548.132 317.223 576.504 347.559 571.382 388.777 609 371.169 646.618 388.777 641.496 347.559 669.868 317.223 629.084 309.357 Z" fill="#2e3440" fill-opacity="1" stroke="none"/>
</svg>
